<?xml version="1.0" encoding="utf-8"?>
<svg version="1.1" xmlns:xlink="http://www.w3.org/1999/xlink" width="22px" height="23px" xmlns="http://www.w3.org/2000/svg">
  <g transform="matrix(1 0 0 1 -663 -75 )">
    <path d="M 13.4921875 14.10546875  C 14.6512419871795 12.8937299679487  15.2307692307692 11.4354967948718  15.2307692307692 9.73076923076923  C 15.2307692307692 8.02604166666666  14.6512419871795 6.56780849358974  13.4921875 5.35606971153846  C 12.3331330128205 4.14433092948718  10.9383012820513 3.53846153846154  9.30769230769231 3.53846153846154  C 7.67708333333333 3.53846153846154  6.2822516025641 4.14433092948718  5.12319711538462 5.35606971153846  C 3.96414262820513 6.56780849358974  3.38461538461539 8.02604166666666  3.38461538461539 9.73076923076923  C 3.38461538461539 11.4354967948718  3.96414262820513 12.8937299679487  5.12319711538462 14.10546875  C 6.2822516025641 15.3172075320513  7.67708333333333 15.9230769230769  9.30769230769231 15.9230769230769  C 10.9383012820513 15.9230769230769  12.3331330128205 15.3172075320513  13.4921875 14.10546875  Z M 21.5108173076923 19.9867788461538  C 21.8369391025641 20.3277243589744  22 20.7423878205128  22 21.2307692307692  C 22 21.7099358974359  21.8325320512821 22.1245993589744  21.4975961538462 22.4747596153846  C 21.1626602564103 22.8249198717949  20.7660256410256 23  20.3076923076923 23  C 19.8317307692308 23  19.4350961538462 22.8249198717949  19.1177884615385 22.4747596153846  L 14.5829326923077 17.7475961538462  C 13.0052083333333 18.8902243589744  11.2467948717949 19.4615384615385  9.30769230769231 19.4615384615385  C 8.04727564102564 19.4615384615385  6.84194711538462 19.2058293269231  5.69170673076923 18.6944110576923  C 4.54146634615385 18.1829927884615  3.54987980769231 17.4918870192308  2.71694711538462 16.62109375  C 1.88401442307692 15.7503004807692  1.22295673076923 14.7136418269231  0.733774038461538 13.5111177884615  C 0.244591346153846 12.30859375  0 11.0484775641026  0 9.73076923076923  C 0 8.41306089743589  0.244591346153846 7.15294471153846  0.733774038461538 5.95042067307692  C 1.22295673076923 4.74789663461538  1.88401442307692 3.71123798076923  2.71694711538462 2.84044471153846  C 3.54987980769231 1.96965144230769  4.54146634615385 1.27854567307692  5.69170673076923 0.767127403846155  C 6.84194711538462 0.255709134615384  8.04727564102564 0  9.30769230769231 0  C 10.568108974359 0  11.7734375 0.255709134615384  12.9236778846154 0.767127403846155  C 14.0739182692308 1.27854567307692  15.0655048076923 1.96965144230769  15.8984375 2.84044471153846  C 16.7313701923077 3.71123798076923  17.3924278846154 4.74789663461538  17.8816105769231 5.95042067307692  C 18.3707932692308 7.15294471153846  18.6153846153846 8.41306089743589  18.6153846153846 9.73076923076923  C 18.6153846153846 11.7580128205128  18.0689102564103 13.5963541666667  16.9759615384615 15.2457932692308  L 21.5108173076923 19.9867788461538  Z " fill-rule="nonzero" fill="#8c8c8c" stroke="none" transform="matrix(1 0 0 1 663 75 )" />
  </g>
</svg>