<?xml version="1.0" encoding="utf-8"?>
<svg version="1.1" xmlns:xlink="http://www.w3.org/1999/xlink" width="42px" height="51px" xmlns="http://www.w3.org/2000/svg">
  <g transform="matrix(1 0 0 1 496 -904 )">
    <path d="M 27.9890625 39.578125  C 33.1296875 35.5052083333334  35.7 31.5208333333334  35 27.625  L 35 7  L 21 7  L 21 17.085  L 21 44.126953125  C 23.603125 42.732421875  25.9328125 41.2161458333333  27.9890625 39.578125  Z M 41.3765625 0.630859375000039  C 41.7921875 1.05143229166662  42 1.54947916666662  42 2.12500000000004  L 42 27.625  C 42 29.5286458333334  41.63359375 31.4156901041667  40.90078125 33.2861328125  C 40.16796875 35.1565755208334  39.26015625 36.8167317708334  38.17734375 38.2666015625  C 37.09453125 39.7164713541667  35.80390625 41.1276041666667  34.30546875 42.5  C 32.80703125 43.8723958333334  31.4234375 45.0123697916667  30.1546875 45.919921875  C 28.8859375 46.8274739583334  27.5625 47.6852213541667  26.184375 48.4931640625  C 24.80625 49.3011067708334  23.82734375 49.8489583333334  23.24765625 50.13671875  C 22.66796875 50.4244791666667  22.203125 50.6458333333334  21.853125 50.80078125  C 21.590625 50.93359375  21.30625 51  21 51  C 20.69375 51  20.409375 50.93359375  20.146875 50.80078125  C 19.796875 50.6458333333334  19.33203125 50.4244791666667  18.75234375 50.13671875  C 18.17265625 49.8489583333334  17.19375 49.3011067708334  15.815625 48.4931640625  C 14.4375 47.6852213541667  13.1140625 46.8274739583334  11.8453125 45.919921875  C 10.5765625 45.0123697916667  9.19296874999998 43.8723958333334  7.69453125000001 42.5  C 6.19609374999999 41.1276041666667  4.90546875000001 39.7164713541667  3.82265625000002 38.2666015625  C 2.73984374999998 36.8167317708334  1.83203125 35.1565755208334  1.09921874999998 33.2861328125  C 0.366406250000011 31.4156901041667  0 29.5286458333334  0 27.625  L 0 2.12500000000004  C 0 1.54947916666662  0.207812499999989 1.05143229166662  0.623437500000023 0.630859375000039  C 1.0390625 0.210286458333346  1.53125 0  2.10000000000002 0  L 39.9 0  C 40.46875 0  40.9609375 0.210286458333346  41.3765625 0.630859375000039  Z " fill-rule="nonzero" fill="#000000" stroke="none" transform="matrix(1 0 0 1 -496 904 )" />
  </g>
</svg>