<?xml version="1.0" encoding="utf-8"?>
<svg version="1.1" xmlns:xlink="http://www.w3.org/1999/xlink" width="24px" height="27px" xmlns="http://www.w3.org/2000/svg">
  <g transform="matrix(1 0 0 1 -824 -70 )">
    <path d="M 20 7.71428571428571  C 20 9.19084821428571  19.5885416666667 10.5569196428571  18.765625 11.8125  C 19.2552083333333 11.953125  19.7213541666667 12.1439732142857  20.1640625 12.3850446428571  C 20.6067708333333 12.6261160714286  21.0703125 12.9927455357143  21.5546875 13.4849330357143  C 22.0390625 13.9771205357143  22.453125 14.5571986607143  22.796875 15.2251674107143  C 23.140625 15.8931361607143  23.4270833333333 16.7569754464286  23.65625 17.8166852678571  C 23.8854166666667 18.8763950892857  24 20.0641741071429  24 21.3800223214286  C 24 22.9268973214286  23.4791666666667 24.2502790178571  22.4375 25.3501674107143  C 21.3958333333333 26.4500558035714  20.140625 27  18.671875 27  L 5.328125 27  C 3.859375 27  2.60416666666667 26.4500558035714  1.5625 25.3501674107143  C 0.520833333333333 24.2502790178571  0 22.9268973214286  0 21.3800223214286  C 0 20.0641741071429  0.114583333333333 18.8763950892857  0.34375 17.8166852678571  C 0.572916666666667 16.7569754464286  0.859375 15.8931361607143  1.203125 15.2251674107143  C 1.546875 14.5571986607143  1.9609375 13.9771205357143  2.4453125 13.4849330357143  C 2.9296875 12.9927455357143  3.39322916666667 12.6261160714286  3.8359375 12.3850446428571  C 4.27864583333333 12.1439732142857  4.74479166666667 11.953125  5.234375 11.8125  C 4.41145833333333 10.5569196428571  4 9.19084821428571  4 7.71428571428571  C 4 6.66964285714285  4.2109375 5.67271205357143  4.6328125 4.72349330357143  C 5.0546875 3.77427455357143  5.625 2.953125  6.34375 2.26004464285714  C 7.0625 1.56696428571429  7.9140625 1.01702008928571  8.8984375 0.610212053571428  C 9.8828125 0.203404017857142  10.9166666666667 0  12 0  C 13.0833333333333 0  14.1171875 0.203404017857142  15.1015625 0.610212053571428  C 16.0859375 1.01702008928571  16.9375 1.56696428571429  17.65625 2.26004464285714  C 18.375 2.953125  18.9453125 3.77427455357143  19.3671875 4.72349330357143  C 19.7890625 5.67271205357143  20 6.66964285714285  20 7.71428571428571  Z M 16.2421875 3.62360491071429  C 15.0703125 2.49358258928571  13.65625 1.92857142857143  12 1.92857142857143  C 10.34375 1.92857142857143  8.9296875 2.49358258928571  7.7578125 3.62360491071429  C 6.5859375 4.75362723214286  6 6.1171875  6 7.71428571428571  C 6 9.31138392857143  6.5859375 10.6749441964286  7.7578125 11.8049665178571  C 8.9296875 12.9349888392857  10.34375 13.5  12 13.5  C 13.65625 13.5  15.0703125 12.9349888392857  16.2421875 11.8049665178571  C 17.4140625 10.6749441964286  18 9.31138392857143  18 7.71428571428571  C 18 6.1171875  17.4140625 4.75362723214286  16.2421875 3.62360491071429  Z M 5.328125 25  L 18.671875 25  C 19.5885416666667 25.0714285714286  20.3723958333333 24.7123325892857  21.0234375 23.994140625  C 21.6744791666667 23.2759486607143  22 22.4045758928571  22 21.3800223214286  C 22 18.9793526785714  21.5911458333333 17.0859375  20.7734375 15.6997767857143  C 19.9557291666667 14.3136160714286  18.78125 13.5853794642857  17.25 13.5150669642857  C 15.7395833333333 14.7907366071429  13.9895833333333 15.4285714285714  12 15.4285714285714  C 10.0104166666667 15.4285714285714  8.26041666666667 14.7907366071429  6.75 13.5150669642857  C 5.21875 13.5853794642857  4.04427083333333 14.3136160714286  3.2265625 15.6997767857143  C 2.40885416666667 17.0859375  2 18.9793526785714  2 21.3800223214286  C 2 22.4045758928571  2.32552083333333 23.2759486607143  2.9765625 23.994140625  C 3.62760416666667 24.7123325892857  4.41145833333333 25.0714285714286  5.328125 25  Z " fill-rule="nonzero" fill="#d9001b" stroke="none" transform="matrix(1 0 0 1 824 70 )" />
  </g>
</svg>