<?xml version="1.0" encoding="utf-8"?>
<svg version="1.1" xmlns:xlink="http://www.w3.org/1999/xlink" width="24px" height="28px" xmlns="http://www.w3.org/2000/svg">
  <g transform="matrix(1 0 0 1 -718 -75 )">
    <path d="M 20 8  C 20 9.53125  19.5885416666667 10.9479166666667  18.765625 12.25  C 19.2552083333333 12.3958333333333  19.7213541666667 12.59375  20.1640625 12.84375  C 20.6067708333333 13.09375  21.0703125 13.4739583333333  21.5546875 13.984375  C 22.0390625 14.4947916666667  22.453125 15.0963541666667  22.796875 15.7890625  C 23.140625 16.4817708333333  23.4270833333333 17.3776041666667  23.65625 18.4765625  C 23.8854166666667 19.5755208333333  24 20.8072916666667  24 22.171875  C 24 23.7760416666667  23.4791666666667 25.1484375  22.4375 26.2890625  C 21.3958333333333 27.4296875  20.140625 28  18.671875 28  L 5.328125 28  C 3.859375 28  2.60416666666667 27.4296875  1.5625 26.2890625  C 0.520833333333333 25.1484375  0 23.7760416666667  0 22.171875  C 0 20.8072916666667  0.114583333333333 19.5755208333333  0.34375 18.4765625  C 0.572916666666667 17.3776041666667  0.859375 16.4817708333333  1.203125 15.7890625  C 1.546875 15.0963541666667  1.9609375 14.4947916666667  2.4453125 13.984375  C 2.9296875 13.4739583333333  3.39322916666667 13.09375  3.8359375 12.84375  C 4.27864583333333 12.59375  4.74479166666667 12.3958333333333  5.234375 12.25  C 4.41145833333333 10.9479166666667  4 9.53125  4 8  C 4 6.91666666666666  4.2109375 5.8828125  4.6328125 4.8984375  C 5.0546875 3.9140625  5.625 3.0625  6.34375 2.34375  C 7.0625 1.625  7.9140625 1.0546875  8.8984375 0.632812499999999  C 9.8828125 0.210937499999999  10.9166666666667 0  12 0  C 13.0833333333333 0  14.1171875 0.210937499999999  15.1015625 0.632812499999999  C 16.0859375 1.0546875  16.9375 1.625  17.65625 2.34375  C 18.375 3.0625  18.9453125 3.9140625  19.3671875 4.8984375  C 19.7890625 5.8828125  20 6.91666666666666  20 8  Z M 16.2421875 3.7578125  C 15.0703125 2.5859375  13.65625 2  12 2  C 10.34375 2  8.9296875 2.5859375  7.7578125 3.7578125  C 6.5859375 4.9296875  6 6.34375  6 8  C 6 9.65625  6.5859375 11.0703125  7.7578125 12.2421875  C 8.9296875 13.4140625  10.34375 14  12 14  C 13.65625 14  15.0703125 13.4140625  16.2421875 12.2421875  C 17.4140625 11.0703125  18 9.65625  18 8  C 18 6.34375  17.4140625 4.9296875  16.2421875 3.7578125  Z M 5.328125 26  L 18.671875 26  C 19.5885416666667 26  20.3723958333333 25.6276041666667  21.0234375 24.8828125  C 21.6744791666667 24.1380208333333  22 23.234375  22 22.171875  C 22 19.6822916666667  21.5911458333333 17.71875  20.7734375 16.28125  C 19.9557291666667 14.84375  18.78125 14.0885416666667  17.25 14.015625  C 15.7395833333333 15.3385416666667  13.9895833333333 16  12 16  C 10.0104166666667 16  8.26041666666667 15.3385416666667  6.75 14.015625  C 5.21875 14.0885416666667  4.04427083333333 14.84375  3.2265625 16.28125  C 2.40885416666667 17.71875  2 19.6822916666667  2 22.171875  C 2 23.234375  2.32552083333333 24.1380208333333  2.9765625 24.8828125  C 3.62760416666667 25.6276041666667  4.41145833333333 26  5.328125 26  Z " fill-rule="nonzero" fill="#d9001b" stroke="none" transform="matrix(1 0 0 1 718 75 )" />
  </g>
</svg>