<?xml version="1.0" encoding="utf-8"?>
<svg version="1.1" xmlns:xlink="http://www.w3.org/1999/xlink" width="33px" height="27px" xmlns="http://www.w3.org/2000/svg">
  <g transform="matrix(1 0 0 1 -751 -73 )">
    <path d="M 11.9387019230769 22.8196022727273  C 12.4411057692308 23.3053977272727  12.6923076923077 23.8806818181818  12.6923076923077 24.5454545454545  C 12.6923076923077 25.2102272727273  12.4411057692308 25.7855113636364  11.9387019230769 26.2713068181818  C 11.4362980769231 26.7571022727273  10.8413461538462 27  10.1538461538462 27  C 9.46634615384616 27  8.87139423076923 26.7571022727273  8.36899038461539 26.2713068181818  C 7.86658653846154 25.7855113636364  7.61538461538462 25.2102272727273  7.61538461538462 24.5454545454545  C 7.61538461538462 23.8806818181818  7.86658653846154 23.3053977272727  8.36899038461539 22.8196022727273  C 8.87139423076923 22.3338068181818  9.46634615384616 22.0909090909091  10.1538461538462 22.0909090909091  C 10.8413461538462 22.0909090909091  11.4362980769231 22.3338068181818  11.9387019230769 22.8196022727273  Z M 29.7079326923077 22.8196022727273  C 30.2103365384615 23.3053977272727  30.4615384615385 23.8806818181818  30.4615384615385 24.5454545454545  C 30.4615384615385 25.2102272727273  30.2103365384615 25.7855113636364  29.7079326923077 26.2713068181818  C 29.2055288461538 26.7571022727273  28.6105769230769 27  27.9230769230769 27  C 27.2355769230769 27  26.640625 26.7571022727273  26.1382211538462 26.2713068181818  C 25.6358173076923 25.7855113636364  25.3846153846154 25.2102272727273  25.3846153846154 24.5454545454545  C 25.3846153846154 23.8806818181818  25.6358173076923 23.3053977272727  26.1382211538462 22.8196022727273  C 26.640625 22.3338068181818  27.2355769230769 22.0909090909091  27.9230769230769 22.0909090909091  C 28.6105769230769 22.0909090909091  29.2055288461538 22.3338068181818  29.7079326923077 22.8196022727273  Z M 32.6231971153846 2.81889204545454  C 32.8743990384615 3.06178977272727  33 3.34943181818181  33 3.68181818181818  L 33 13.5  C 33 13.8068181818182  32.8909254807692 14.0784801136364  32.6727764423077 14.3149857954545  C 32.4546274038462 14.5514914772727  32.1868990384615 14.6889204545455  31.8695913461538 14.7272727272727  L 11.1652644230769 17.0667613636364  C 11.3371394230769 17.8338068181818  11.4230769230769 18.28125  11.4230769230769 18.4090909090909  C 11.4230769230769 18.6136363636364  11.2644230769231 19.0227272727273  10.9471153846154 19.6363636363636  L 29.1923076923077 19.6363636363636  C 29.5360576923077 19.6363636363636  29.8335336538462 19.7578125  30.0847355769231 20.0007102272727  C 30.3359375 20.2436079545455  30.4615384615385 20.53125  30.4615384615385 20.8636363636364  C 30.4615384615385 21.1960227272727  30.3359375 21.4836647727273  30.0847355769231 21.7265625  C 29.8335336538462 21.9694602272727  29.5360576923077 22.0909090909091  29.1923076923077 22  L 8.88461538461539 22  C 8.54086538461539 22.0909090909091  8.24338942307692 21.9694602272727  7.9921875 21.7265625  C 7.74098557692308 21.4836647727273  7.61538461538462 21.1960227272727  7.61538461538462 20.8636363636364  C 7.61538461538462 20.7230113636364  7.66826923076923 20.5216619318182  7.77403846153846 20.2595880681818  C 7.87980769230769 19.9975142045455  7.98557692307692 19.7674005681818  8.09134615384615 19.5692471590909  C 8.19711538461539 19.37109375  8.33924278846154 19.1154119318182  8.51772836538462 18.8022017045455  C 8.69621394230769 18.4889914772727  8.79867788461539 18.3004261363636  8.82512019230769 18.2365056818182  L 5.31490384615385 2.45454545454546  L 1.26923076923077 2.45454545454546  C 0.925480769230769 2.45454545454546  0.628004807692308 2.33309659090909  0.376802884615385 2.09019886363636  C 0.125600961538462 1.84730113636363  0 1.55965909090909  0 1.22727272727273  C 0 0.894886363636362  0.125600961538462 0.607244318181814  0.376802884615385 0.364346590909092  C 0.628004807692308 0.121448863636361  0.925480769230769 0  1.26923076923077 0  L 6.34615384615385 0  C 6.55769230769231 0  6.74609375 0.0415482954545436  6.91135817307692 0.124644886363637  C 7.07662259615385 0.207741477272727  7.20552884615385 0.306818181818182  7.29807692307692 0.421875  C 7.390625 0.536931818181818  7.4765625 0.693536931818178  7.55588942307692 0.891690340909092  C 7.63521634615385 1.08984375  7.68810096153846 1.25603693181818  7.71454326923077 1.39026988636364  C 7.74098557692308 1.52450284090909  7.77734375 1.71306818181818  7.82361778846154 1.95596590909091  C 7.86989182692308 2.19886363636363  7.89963942307692 2.36505681818182  7.91286057692308 2.45454545454546  L 31.7307692307692 2.45454545454546  C 32.0745192307692 2.45454545454546  32.3719951923077 2.57599431818182  32.6231971153846 2.81889204545454  Z " fill-rule="nonzero" fill="#00c4a6" stroke="none" transform="matrix(1 0 0 1 751 73 )" />
  </g>
</svg>