<?xml version="1.0" encoding="utf-8"?>
<svg version="1.1" xmlns:xlink="http://www.w3.org/1999/xlink" width="35px" height="37px" xmlns="http://www.w3.org/2000/svg">
  <g transform="matrix(1 0 0 1 -778 -883 )">
    <path d="M 14.7998046875 21.6280691964286  C 14.8985460069444 21.9653087797619  14.9327256944444 22.1752232142857  14.90234375 22.2578125  C 14.8871527777778 22.2991071428571  14.7922092013889 22.295665922619  14.6175130208333 22.2474888392857  C 14.4428168402778 22.1993117559524  14.2035590277778 22.1201636904762  13.8997395833333 22.0100446428571  L 13.4440104166667 21.82421875  C 12.7756076388889 21.5489211309524  12.1148003472222 21.211681547619  11.4615885416667 20.8125  C 11.3552517361111 20.7436755952381  11.0438368055556 20.5268787202381  10.52734375 20.162109375  C 10.0108506944444 19.7973400297619  9.72222222222222 19.6011904761905  9.66145833333333 19.5736607142857  C 8.64366319444444 20.991443452381  7.62586805555556 22.2371651785714  6.60807291666667 23.3108258928571  C 5.37760416666667 24.6184895833333  4.580078125 25.3755580357143  4.21549479166667 25.58203125  C 4.15473090277778 25.6095610119048  4.00661892361111 25.6370907738095  3.77115885416667 25.6646205357143  C 3.53569878472222 25.692150297619  3.39518229166667 25.692150297619  3.349609375 25.6646205357143  C 3.44075520833333 25.6095610119048  4.06358506944444 24.9763764880952  5.21809895833333 23.7650669642857  C 5.537109375 23.4347098214286  6.1865234375 22.6432291666667  7.16634114583333 21.390625  C 8.14615885416667 20.1380208333333  8.74240451388889 19.3258928571429  8.955078125 18.9542410714286  C 9.21332465277778 18.5412946428571  9.60069444444444 17.8633742559524  10.1171875 16.9204799107143  C 10.6336805555556 15.9775855654762  10.9071180555556 15.4441964285714  10.9375 15.3203125  C 10.8159722222222 15.3065476190476  9.98046875 15.5336681547619  8.43098958333333 16.0016741071429  C 8.30946180555556 16.0292038690476  8.1005859375 16.080822172619  7.80436197916667 16.1565290178571  C 7.50813802083333 16.2322358630952  7.24609375 16.297619047619  7.01822916666667 16.3526785714286  C 6.79036458333333 16.4077380952381  6.66124131944445 16.442150297619  6.630859375 16.4559151785714  C 6.60047743055556 16.4834449404762  6.58528645833333 16.5557105654762  6.58528645833333 16.6727120535714  C 6.58528645833333 16.7897135416667  6.57769097222222 16.8550967261905  6.5625 16.8688616071429  C 6.48654513888889 17.0065104166667  6.25108506944445 17.1097470238095  5.85611979166667 17.1785714285714  C 5.50672743055556 17.2749255952381  5.14973958333333 17.2749255952381  4.78515625 17.1785714285714  C 4.51171875 17.1235119047619  4.29904513888889 16.9789806547619  4.14713541666667 16.7449776785714  C 4.08637152777778 16.6623883928571  4.04839409722222 16.5040922619048  4.033203125 16.2700892857143  C 4.12434895833333 16.2425595238095  4.31043836805556 16.2081473214286  4.59147135416667 16.1668526785714  C 4.87250434027778 16.1255580357143  5.09657118055556 16.0842633928571  5.263671875 16.04296875  C 6.14474826388889 15.8227306547619  6.94227430555556 15.6024925595238  7.65625 15.3822544642857  C 9.17534722222222 14.9004836309524  9.95008680555556 14.6595982142857  9.98046875 14.6595982142857  C 10.1323784722222 14.6320684523809  10.458984375 14.4978608630952  10.9602864583333 14.2569754464286  C 11.4615885416667 14.0160900297619  11.7957899305556 13.8681175595238  11.962890625 13.8130580357143  C 12.099609375 13.7717633928571  12.2629123263889 13.7167038690476  12.4527994791667 13.6478794642857  C 12.6426866319444 13.5790550595238  12.7528211805556 13.5412016369048  12.783203125 13.5343191964286  C 12.8135850694444 13.5274367559524  12.8591579861111 13.5308779761905  12.919921875 13.5446428571429  C 12.9503038194444 13.7098214285714  12.9427083333333 13.9369419642857  12.8971354166667 14.2260044642857  C 12.8971354166667 14.2535342261905  12.8021918402778 14.4393601190476  12.6123046875 14.7834821428571  C 12.4224175347222 15.1276041666667  12.2211371527778 15.4958147321429  12.0084635416667 15.8881138392857  C 11.7957899305556 16.2804129464286  11.6666666666667 16.510974702381  11.62109375 16.5797991071429  C 11.2413194444444 17.2680431547619  10.6564670138889 18.1696428571429  9.86653645833333 19.2845982142857  L 11.3248697916667 19.8627232142857  C 11.5071614583333 19.9453125  12.0730251736111 20.1655505952381  13.0224609375 20.5234375  C 13.9718967013889 20.8813244047619  14.4845920138889 21.0740327380952  14.560546875 21.1015625  C 14.6213107638889 21.1153273809524  14.7010633680556 21.2908296130952  14.7998046875 21.6280691964286  Z M 9.75260416666667 11.8722098214286  C 10.0108506944444 11.8722098214286  10.1703559027778 11.9892113095238  10.2311197916667 12.2232142857143  C 10.2766927083333 12.4296875  10.2463107638889 12.6223958333333  10.1399739583333 12.8013392857143  C 9.95768229166667 13.117931547619  9.57790798611111 13.3794642857143  9.00065104166667 13.5859375  C 8.544921875 13.7511160714286  8.08919270833333 13.8337053571429  7.63346354166667 13.8337053571429  C 7.23849826388889 13.7924107142857  6.86631944444445 13.6134672619048  6.51692708333333 13.296875  C 6.30425347222222 13.0904017857143  6.16753472222222 12.8082217261905  6.10677083333333 12.4503348214286  L 6.12955729166667 12.3883928571429  C 6.17513020833333 12.4296875  6.3232421875 12.4640997023809  6.57389322916667 12.4916294642857  C 6.82454427083333 12.5191592261905  7.02582465277778 12.5191592261905  7.177734375 12.4916294642857  C 7.32964409722222 12.4640997023809  7.77018229166667 12.3539806547619  8.49934895833333 12.1612723214286  C 9.04622395833333 11.99609375  9.46397569444444 11.8997395833333  9.75260416666667 11.8722098214286  Z M 24.404296875 18.7064732142857  L 26.1360677083333 14.88671875  L 27.5716145833333 19.5736607142857  L 24.404296875 18.7064732142857  Z M 1 10.1171875  L 1 31.4045758928571  L 17 26.6143973214286  L 17 5.30636160714286  L 1 10.1171875  Z M 28.3235677083333 22.0719866071429  L 29.1666666666667 24.859375  L 31.4908854166667 25.4994419642857  L 27.3665364583333 11.9341517857143  L 25.087890625 11.2940848214286  L 20.166015625 22.3610491071429  L 22.490234375 23.0011160714286  L 23.515625 20.7299107142857  L 28.3235677083333 22.0719866071429  Z M 30.76171875 0.949776785714287  L 17.705078125 4.99665178571429  L 30.76171875 8.79575892857143  L 30.76171875 0.949776785714287  Z M 25.771484375 33.8203125  L 24.7916666666667 32.3130580357143  L 28.3919270833333 32.5814732142857  L 27.1614583333333 35.8850446428571  L 26.25 34.5223214285714  C 24.2751736111111 35.6648065476191  22.1788194444444 36.4081101190476  19.9609375 36.7522321428571  C 19.0798611111111 36.9174107142857  18.388671875 37  17.8873697916667 37  L 15.9733072916667 37  C 14.7732204861111 37  13.2579210069444 36.7315848214286  11.4274088541667 36.1947544642857  C 9.59689670138889 35.6579241071429  8.203125 35.0729166666667  7.24609375 34.4397321428571  C 7.12456597222222 34.3433779761905  7.06380208333333 34.2332589285714  7.06380208333333 34.109375  C 7.06380208333333 33.999255952381  7.10177951388889 33.9063430059524  7.177734375 33.8306361607143  C 7.25368923611111 33.7549293154762  7.35243055555556 33.7170758928571  7.47395833333333 33.7170758928571  C 7.53472222222222 33.7170758928571  7.67144097222222 33.7686941964286  7.88411458333333 33.8719308035714  C 8.09678819444444 33.9751674107143  8.32845052083333 34.0887276785714  8.5791015625 34.2126116071429  C 8.82975260416667 34.3364955357143  8.98546006944444 34.4122023809524  9.04622395833333 34.4397321428571  C 10.1551649305556 34.9490327380952  11.3666449652778 35.372302827381  12.6806640625 35.7095424107143  C 13.9946831597222 36.0467819940476  15.1909722222222 36.2154017857143  16.26953125 36.2154017857143  C 17.7126736111111 36.2154017857143  18.9811197916667 36.1156063988095  20.0748697916667 35.916015625  C 21.1686197916667 35.7164248511905  22.3611111111111 35.3688616071429  23.65234375 34.8733258928571  C 23.8802083333333 34.7769717261905  24.1118706597222 34.6702938988095  24.3473307291667 34.5532924107143  C 24.5827907986111 34.436290922619  24.8410373263889 34.3055245535714  25.1220703125 34.1609933035714  C 25.4031032986111 34.0164620535714  25.6195746527778 33.9029017857143  25.771484375 33.8203125  Z M 31.650390625 9.06417410714286  L 35 10.0345982142857  L 35 32.3130580357143  L 17.36328125 27.2338169642857  C 17.1506076388889 27.31640625  14.3023003472222 28.1939174107143  8.818359375 29.8663504464286  C 3.33441840277778 31.5387834821429  0.539279513888889 32.375  0.432942708333333 32.375  C 0.235460069444444 32.375  0.0987413194444444 32.2855282738095  0.0227864583333333 32.1065848214286  C 0.0227864583333333 32.0928199404762  0.0151909722222222 32.0721726190476  0 32.0446428571429  L 0 9.78683035714286  C 0.0455729166666667 9.66294642857143  0.0759548611111111 9.59412202380952  0.0911458333333333 9.58035714285714  C 0.167100694444444 9.49776785714286  0.319010416666667 9.42206101190476  0.546875 9.35323660714286  C 2.17230902777778 8.85770089285714  3.30403645833333 8.51357886904762  3.94205729166667 8.32087053571429  L 3.94205729166667 0.392299107142858  L 16.6569010416667 4.48046875  C 16.6872829861111 4.48046875  17.9063585069444 4.10193452380952  20.3141276041667 3.34486607142857  C 22.7218967013889 2.58779761904762  25.1220703125 1.84105282738095  27.5146484375 1.10463169642857  C 29.9072265625 0.368210565476193  31.1338975694445 0  31.1946614583333 0  C 31.4984809027778 0  31.650390625 0.14453125  31.650390625 0.43359375  L 31.650390625 9.06417410714286  Z " fill-rule="nonzero" fill="#8400ff" stroke="none" transform="matrix(1 0 0 1 778 883 )" />
  </g>
</svg>