<?xml version="1.0" encoding="utf-8"?>
<svg version="1.1" xmlns:xlink="http://www.w3.org/1999/xlink" width="35px" height="38px" xmlns="http://www.w3.org/2000/svg">
  <g transform="matrix(1 0 0 1 -765 -905 )">
    <path d="M 14.7998046875 22.2126116071429  C 14.8985460069444 22.5589657738095  14.9327256944444 22.7745535714286  14.90234375 22.859375  C 14.8871527777778 22.9017857142857  14.7922092013889 22.8982514880952  14.6175130208333 22.8487723214286  C 14.4428168402778 22.7992931547619  14.2035590277778 22.7180059523809  13.8997395833333 22.6049107142857  L 13.4440104166667 22.4140625  C 12.7756076388889 22.1313244047619  12.1148003472222 21.7849702380952  11.4615885416667 21.375  C 11.3552517361111 21.3043154761905  11.0438368055556 21.0816592261905  10.52734375 20.70703125  C 10.0108506944444 20.3324032738095  9.72222222222222 20.1309523809524  9.66145833333333 20.1026785714286  C 8.64366319444444 21.5587797619048  7.62586805555556 22.8381696428571  6.60807291666667 23.9408482142857  C 5.37760416666667 25.2838541666667  4.580078125 26.0613839285714  4.21549479166667 26.2734375  C 4.15473090277778 26.3017113095238  4.00661892361111 26.3299851190476  3.77115885416667 26.3582589285714  C 3.53569878472222 26.3865327380952  3.39518229166667 26.3865327380952  3.349609375 26.3582589285714  C 3.44075520833333 26.3017113095238  4.06358506944444 25.6514136904762  5.21809895833333 24.4073660714286  C 5.537109375 24.0680803571429  6.1865234375 23.2552083333333  7.16634114583333 21.96875  C 8.14615885416667 20.6822916666667  8.74240451388889 19.8482142857143  8.955078125 19.4665178571429  C 9.21332465277778 19.0424107142857  9.60069444444444 18.3461681547619  10.1171875 17.3777901785714  C 10.6336805555556 16.4094122023809  10.9071180555556 15.8616071428571  10.9375 15.734375  C 10.8159722222222 15.7202380952381  9.98046875 15.9534970238095  8.43098958333333 16.4341517857143  C 8.30946180555556 16.4624255952381  8.1005859375 16.5154389880952  7.80436197916667 16.5931919642857  C 7.50813802083333 16.6709449404762  7.24609375 16.7380952380952  7.01822916666667 16.7946428571429  C 6.79036458333333 16.8511904761905  6.66124131944445 16.8865327380952  6.630859375 16.9006696428571  C 6.60047743055556 16.9289434523809  6.58528645833333 17.0031622023809  6.58528645833333 17.1233258928571  C 6.58528645833333 17.2434895833333  6.57769097222222 17.3106398809524  6.5625 17.3247767857143  C 6.48654513888889 17.4661458333333  6.25108506944445 17.5721726190476  5.85611979166667 17.6428571428571  C 5.50672743055556 17.7418154761905  5.14973958333333 17.7418154761905  4.78515625 17.6428571428571  C 4.51171875 17.5863095238095  4.29904513888889 17.4378720238095  4.14713541666667 17.1975446428571  C 4.08637152777778 17.1127232142857  4.04839409722222 16.9501488095238  4.033203125 16.7098214285714  C 4.12434895833333 16.6815476190476  4.31043836805556 16.6462053571429  4.59147135416667 16.6037946428571  C 4.87250434027778 16.5613839285714  5.09657118055556 16.5189732142857  5.263671875 16.4765625  C 6.14474826388889 16.2503720238095  6.94227430555556 16.024181547619  7.65625 15.7979910714286  C 9.17534722222222 15.3031994047619  9.95008680555556 15.0558035714286  9.98046875 15.0558035714286  C 10.1323784722222 15.0275297619048  10.458984375 14.8896949404762  10.9602864583333 14.6422991071429  C 11.4615885416667 14.3949032738095  11.7957899305556 14.242931547619  11.962890625 14.1863839285714  C 12.099609375 14.1439732142857  12.2629123263889 14.0874255952381  12.4527994791667 14.0167410714286  C 12.6426866319444 13.946056547619  12.7528211805556 13.9071800595238  12.783203125 13.9001116071429  C 12.8135850694444 13.8930431547619  12.8591579861111 13.8965773809524  12.919921875 13.9107142857143  C 12.9503038194444 14.0803571428571  12.9427083333333 14.3136160714286  12.8971354166667 14.6104910714286  C 12.8971354166667 14.6387648809524  12.8021918402778 14.8296130952381  12.6123046875 15.1830357142857  C 12.4224175347222 15.5364583333333  12.2211371527778 15.9146205357143  12.0084635416667 16.3175223214286  C 11.7957899305556 16.7204241071429  11.6666666666667 16.9572172619048  11.62109375 17.0279017857143  C 11.2413194444444 17.7347470238095  10.6564670138889 18.6607142857143  9.86653645833333 19.8058035714286  L 11.3248697916667 20.3995535714286  C 11.5071614583333 20.484375  12.0730251736111 20.7105654761905  13.0224609375 21.078125  C 13.9718967013889 21.4456845238095  14.4845920138889 21.6436011904762  14.560546875 21.671875  C 14.6213107638889 21.6860119047619  14.7010633680556 21.8662574404762  14.7998046875 22.2126116071429  Z M 9.75260416666667 12.1930803571429  C 10.0108506944444 12.1930803571429  10.1703559027778 12.313244047619  10.2311197916667 12.5535714285714  C 10.2766927083333 12.765625  10.2463107638889 12.9635416666667  10.1399739583333 13.1473214285714  C 9.95768229166667 13.4724702380952  9.57790798611111 13.7410714285714  9.00065104166667 13.953125  C 8.544921875 14.1227678571429  8.08919270833333 14.2075892857143  7.63346354166667 14.2075892857143  C 7.23849826388889 14.1651785714286  6.86631944444445 13.9813988095238  6.51692708333333 13.65625  C 6.30425347222222 13.4441964285714  6.16753472222222 13.1543898809524  6.10677083333333 12.7868303571429  L 6.12955729166667 12.7232142857143  C 6.17513020833333 12.765625  6.3232421875 12.8009672619048  6.57389322916667 12.8292410714286  C 6.82454427083333 12.8575148809524  7.02582465277778 12.8575148809524  7.177734375 12.8292410714286  C 7.32964409722222 12.8009672619048  7.77018229166667 12.6878720238095  8.49934895833333 12.4899553571429  C 9.04622395833333 12.3203125  9.46397569444444 12.2213541666667  9.75260416666667 12.1930803571429  Z M 24.404296875 19.2120535714286  L 26.1360677083333 15.2890625  L 27.5716145833333 20.1026785714286  L 24.404296875 19.2120535714286  Z M 1 10.390625  L 1 32.2533482142857  L 17 27.3337053571429  L 17 5.44977678571429  L 1 10.390625  Z M 28.3235677083333 22.6685267857143  L 29.1666666666667 25.53125  L 31.4908854166667 26.1886160714286  L 27.3665364583333 12.2566964285714  L 25.087890625 11.5993303571429  L 20.166015625 22.9654017857143  L 22.490234375 23.6227678571429  L 23.515625 21.2901785714286  L 28.3235677083333 22.6685267857143  Z M 30.76171875 0.97544642857143  L 17.705078125 5.13169642857143  L 30.76171875 9.03348214285714  L 30.76171875 0.97544642857143  Z M 25.771484375 34.734375  L 24.7916666666667 33.1863839285714  L 28.3919270833333 33.4620535714286  L 27.1614583333333 36.8549107142857  L 26.25 35.4553571428571  C 24.2751736111111 36.6287202380952  22.1788194444444 37.3921130952381  19.9609375 37.7455357142857  C 19.0798611111111 37.9151785714286  18.388671875 38  17.8873697916667 38  L 15.9733072916667 38  C 14.7732204861111 38  13.2579210069444 37.7243303571429  11.4274088541667 37.1729910714286  C 9.59689670138889 36.6216517857143  8.203125 36.0208333333333  7.24609375 35.3705357142857  C 7.12456597222222 35.2715773809524  7.06380208333333 35.1584821428571  7.06380208333333 35.03125  C 7.06380208333333 34.9181547619048  7.10177951388889 34.8227306547619  7.177734375 34.7449776785714  C 7.25368923611111 34.6672247023809  7.35243055555556 34.6283482142857  7.47395833333333 34.6283482142857  C 7.53472222222222 34.6283482142857  7.67144097222222 34.6813616071429  7.88411458333333 34.7873883928571  C 8.09678819444444 34.8934151785714  8.32845052083333 35.0100446428571  8.5791015625 35.1372767857143  C 8.82975260416667 35.2645089285714  8.98546006944444 35.3422619047619  9.04622395833333 35.3705357142857  C 10.1551649305556 35.8936011904762  11.3666449652778 36.3283110119048  12.6806640625 36.6746651785714  C 13.9946831597222 37.0210193452381  15.1909722222222 37.1941964285714  16.26953125 37.1941964285714  C 17.7126736111111 37.1941964285714  18.9811197916667 37.0917038690476  20.0748697916667 36.88671875  C 21.1686197916667 36.6817336309524  22.3611111111111 36.3247767857143  23.65234375 35.8158482142857  C 23.8802083333333 35.7168898809524  24.1118706597222 35.6073288690476  24.3473307291667 35.4871651785714  C 24.5827907986111 35.3670014880952  24.8410373263889 35.2327008928571  25.1220703125 35.0842633928571  C 25.4031032986111 34.9358258928571  25.6195746527778 34.8191964285714  25.771484375 34.734375  Z M 31.650390625 9.30915178571429  L 35 10.3058035714286  L 35 33.1863839285714  L 17.36328125 27.9698660714286  C 17.1506076388889 28.0546875  14.3023003472222 28.9559151785714  8.818359375 30.6735491071429  C 3.33441840277778 32.3911830357143  0.539279513888889 33.25  0.432942708333333 33.25  C 0.235460069444444 33.25  0.0987413194444444 33.1581101190476  0.0227864583333333 32.9743303571429  C 0.0227864583333333 32.9601934523809  0.0151909722222222 32.9389880952381  0 32.9107142857143  L 0 10.0513392857143  C 0.0455729166666667 9.92410714285714  0.0759548611111111 9.85342261904762  0.0911458333333333 9.83928571428571  C 0.167100694444444 9.75446428571429  0.319010416666667 9.67671130952381  0.546875 9.60602678571429  C 2.17230902777778 9.09709821428571  3.30403645833333 8.74367559523809  3.94205729166667 8.54575892857143  L 3.94205729166667 0.402901785714287  L 16.6569010416667 4.6015625  C 16.6872829861111 4.6015625  17.9063585069444 4.21279761904762  20.3141276041667 3.43526785714286  C 22.7218967013889 2.65773809523809  25.1220703125 1.89081101190476  27.5146484375 1.13448660714286  C 29.9072265625 0.378162202380955  31.1338975694445 0  31.1946614583333 0  C 31.4984809027778 0  31.650390625 0.1484375  31.650390625 0.4453125  L 31.650390625 9.30915178571429  Z " fill-rule="nonzero" fill="#8400ff" stroke="none" transform="matrix(1 0 0 1 765 905 )" />
  </g>
</svg>