<?xml version="1.0" encoding="utf-8"?>
<svg version="1.1" xmlns:xlink="http://www.w3.org/1999/xlink" width="42px" height="50px" xmlns="http://www.w3.org/2000/svg">
  <g transform="matrix(1 0 0 1 473 -882 )">
    <path d="M 27.9890625 38.8020833333334  C 33.1296875 34.8090277777778  35.7 30.9027777777778  35 27.0833333333334  L 35 7  L 21 7  L 21 16.75  L 21 43.26171875  C 23.603125 41.89453125  25.9328125 40.4079861111111  27.9890625 38.8020833333334  Z M 41.3765625 0.618489583333371  C 41.7921875 1.03081597222217  42 1.51909722222217  42 2.08333333333337  L 42 27.0833333333334  C 42 28.9496527777778  41.63359375 30.7996961805555  40.90078125 32.6334635416666  C 40.16796875 34.4672309027778  39.26015625 36.0948350694445  38.17734375 37.5162760416666  C 37.09453125 38.9377170138889  35.80390625 40.3211805555555  34.30546875 41.6666666666666  C 32.80703125 43.0121527777778  31.4234375 44.1297743055555  30.1546875 45.01953125  C 28.8859375 45.9092881944445  27.5625 46.7502170138889  26.184375 47.5423177083334  C 24.80625 48.3344184027778  23.82734375 48.8715277777778  23.24765625 49.1536458333334  C 22.66796875 49.4357638888889  22.203125 49.6527777777778  21.853125 49.8046875  C 21.590625 49.9348958333334  21.30625 50  21 50  C 20.69375 50  20.409375 49.9348958333334  20.146875 49.8046875  C 19.796875 49.6527777777778  19.33203125 49.4357638888889  18.75234375 49.1536458333334  C 18.17265625 48.8715277777778  17.19375 48.3344184027778  15.815625 47.5423177083334  C 14.4375 46.7502170138889  13.1140625 45.9092881944445  11.8453125 45.01953125  C 10.5765625 44.1297743055555  9.19296874999998 43.0121527777778  7.69453125000001 41.6666666666666  C 6.19609374999999 40.3211805555555  4.90546875000001 38.9377170138889  3.82265625000002 37.5162760416666  C 2.73984374999998 36.0948350694445  1.83203125 34.4672309027778  1.09921874999998 32.6334635416666  C 0.366406250000011 30.7996961805555  0 28.9496527777778  0 27.0833333333334  L 0 2.08333333333337  C 0 1.51909722222217  0.207812499999989 1.03081597222217  0.623437500000023 0.618489583333371  C 1.0390625 0.206163194444457  1.53125 0  2.10000000000002 0  L 39.9 0  C 40.46875 0  40.9609375 0.206163194444457  41.3765625 0.618489583333371  Z " fill-rule="nonzero" fill="#000000" stroke="none" transform="matrix(1 0 0 1 -473 882 )" />
  </g>
</svg>