<?xml version="1.0" encoding="utf-8"?>
<svg version="1.1" xmlns:xlink="http://www.w3.org/1999/xlink" width="264px" height="252px" xmlns="http://www.w3.org/2000/svg">
  <g transform="matrix(1 0 0 1 481 -253 )">
    <path d="M 19 206  L 19 229  L 169 229  L 169 206  L 19 206  Z M 19 115  L 19 137  L 169 137  L 169 115  L 19 115  Z M 245.732142857143 229.806818181818  C 248.482142857143 226.465909090909  249.857142857143 222.409090909091  249.857142857143 217.636363636364  C 249.857142857143 212.863636363636  248.482142857143 208.806818181818  245.732142857143 205.465909090909  C 242.982142857143 202.125  239.642857142857 200.454545454545  235.714285714286 200.454545454545  C 231.785714285714 200.454545454545  228.446428571429 202.125  225.696428571429 205.465909090909  C 222.946428571429 208.806818181818  221.571428571429 212.863636363636  221.571428571429 217.636363636364  C 221.571428571429 222.409090909091  222.946428571429 226.465909090909  225.696428571429 229.806818181818  C 228.446428571429 233.147727272727  231.785714285714 234.818181818182  235.714285714286 234.818181818182  C 239.642857142857 234.818181818182  242.982142857143 233.147727272727  245.732142857143 229.806818181818  Z M 19 23  L 19 46  L 169 46  L 169 23  L 19 23  Z M 245.732142857143 138.170454545455  C 248.482142857143 134.829545454545  249.857142857143 130.772727272727  249.857142857143 126  C 249.857142857143 121.227272727273  248.482142857143 117.170454545455  245.732142857143 113.829545454545  C 242.982142857143 110.488636363636  239.642857142857 108.818181818182  235.714285714286 108.818181818182  C 231.785714285714 108.818181818182  228.446428571429 110.488636363636  225.696428571429 113.829545454545  C 222.946428571429 117.170454545455  221.571428571429 121.227272727273  221.571428571429 126  C 221.571428571429 130.772727272727  222.946428571429 134.829545454545  225.696428571429 138.170454545455  C 228.446428571429 141.511363636364  231.785714285714 143.181818181818  235.714285714286 143.181818181818  C 239.642857142857 143.181818181818  242.982142857143 141.511363636364  245.732142857143 138.170454545455  Z M 245.732142857143 46.5340909090909  C 248.482142857143 43.1931818181818  249.857142857143 39.1363636363636  249.857142857143 34.3636363636364  C 249.857142857143 29.5909090909091  248.482142857143 25.5340909090909  245.732142857143 22.1931818181818  C 242.982142857143 18.8522727272727  239.642857142857 17.1818181818182  235.714285714286 17.1818181818182  C 231.785714285714 17.1818181818182  228.446428571429 18.8522727272727  225.696428571429 22.1931818181818  C 222.946428571429 25.5340909090909  221.571428571429 29.5909090909091  221.571428571429 34.3636363636364  C 221.571428571429 39.1363636363636  222.946428571429 43.1931818181818  225.696428571429 46.5340909090909  C 228.446428571429 49.875  231.785714285714 51.5454545454546  235.714285714286 51.5454545454546  C 239.642857142857 51.5454545454546  242.982142857143 49.875  245.732142857143 46.5340909090909  Z M 0 183  L 264 183  L 264 252  L 0 252  L 0 183  Z M 0 92  L 264 92  L 264 160  L 0 160  L 0 92  Z M 0 0  L 264 0  L 264 69  L 0 69  L 0 0  Z " fill-rule="nonzero" fill="#015478" stroke="none" transform="matrix(1 0 0 1 -481 253 )" />
  </g>
</svg>